<svg xmlns:xlink="http://www.w3.org/1999/xlink" width="56" height="41" fill="none" xmlns="http://www.w3.org/2000/svg" id="svg-222907885_1128"><path d="M28 23a6.5 6.5 0 1 0-6.5-6.5A6.508 6.508 0 0 0 28 23Zm0-11a4.5 4.5 0 1 1 0 9 4.5 4.5 0 0 1 0-9Z" fill="#FFFFFF"></path><path d="M28 19a2.5 2.5 0 1 0 0-5 2.5 2.5 0 0 0 0 5Zm0-3a.5.5 0 1 1 0 1 .5.5 0 0 1 0-1Zm-17 7a6.5 6.5 0 1 0-6.5-6.5A6.508 6.508 0 0 0 11 23Zm0-11a4.5 4.5 0 1 1 0 9 4.5 4.5 0 0 1 0-9Zm34 11a6.5 6.5 0 1 0-6.5-6.5A6.508 6.508 0 0 0 45 23Zm0-11a4.5 4.5 0 1 1 0 9 4.5 4.5 0 0 1 0-9Zm0 13a10.983 10.983 0 0 0-8.5 4.027 10.985 10.985 0 0 0-17 0A10.995 10.995 0 0 0 0 36v4a1 1 0 0 0 1 1h54a1 1 0 0 0 1-1v-4a11.012 11.012 0 0 0-11-11Zm-17 2a8.987 8.987 0 0 1 7.32 3.783A10.93 10.93 0 0 0 34 36v3H22v-3a10.93 10.93 0 0 0-1.32-5.217A8.989 8.989 0 0 1 28 27ZM2 36a8.99 8.99 0 0 1 16.32-5.217A10.93 10.93 0 0 0 17 36v3H2v-3Zm17 3v-3c.002-.998.17-1.989.5-2.93.33.941.498 1.932.5 2.93v3h-1Zm17 0v-3c.002-.998.17-1.989.5-2.93.33.941.498 1.932.5 2.93v3h-1Zm18 0H39v-3a10.93 10.93 0 0 0-1.32-5.217A8.99 8.99 0 0 1 54 36v3ZM25.168 7.555a1 1 0 0 0 1.472.213l6-5a1 1 0 1 0-1.28-1.536L26.215 5.52l-1.383-2.075a1 1 0 1 0-1.664 1.11l2 3Z" fill="#FFFFFF"></path></svg>