<svg xmlns:xlink="http://www.w3.org/1999/xlink" width="52" height="52" fill="none" xmlns="http://www.w3.org/2000/svg" id="svg-1504539461_2395"><path d="m30.077 35.545.001.001a4.917 4.917 0 0 1 2.127 1.52c.408.496.678 1.171.789 2.048.087.694.65 1.304 1.406 1.304h4.7c1.306 0 2.379.462 3.244 1.389.86.92 1.306 2.177 1.306 3.811v.56a.65.65 0 0 1-.46.622l-14.426 4.41a1.65 1.65 0 0 1-.937.009l-13.706-3.923a1.35 1.35 0 0 0-1.721 1.298v.524a.65.65 0 0 1-.65.65H3a.65.65 0 0 1-.65-.65v-17.7a.65.65 0 0 1 .65-.65h14.268a.64.64 0 0 1 .229.042l12.58 4.735ZM24.14 39.7l.002.001c.85.272 1.662.46 2.436.564.608.081 1.483.129 2.616.146a1.27 1.27 0 0 0 .957-.403c.239-.263.352-.638.224-1.031a3.722 3.722 0 0 0-.075-.212 1.801 1.801 0 0 0-.956-1.016l-.01-.004-.01-.004-12.08-4.585a1.35 1.35 0 0 0-.478-.088H13.75a1.35 1.35 0 0 0-1.35 1.35v8.951c0 .6.395 1.127.97 1.295l14.345 4.206c.252.074.521.072.773-.004l11.548-3.519c.356-.108.65-.36.804-.674a1.06 1.06 0 0 0-.059-1.067 1.911 1.911 0 0 0-.416-.464 2.011 2.011 0 0 0-1.265-.424H28.75c-.985 0-1.891-.066-2.72-.196a17.15 17.15 0 0 1-2.377-.539h-.001l-3.03-.935a.65.65 0 0 1-.417-.852l.383-1.01a.65.65 0 0 1 .81-.387l2.743.901ZM4.65 46.118c0 .746.604 1.35 1.35 1.35h2.7a1.35 1.35 0 0 0 1.35-1.35v-11.7a1.35 1.35 0 0 0-1.35-1.35H6a1.35 1.35 0 0 0-1.35 1.35v11.7Z" fill="#FFFFFF" stroke="#0A0A0A" stroke-width="0.7px"></path><g clip-path="url(#svg-1504539461_2395_a)" fill="none"><path d="M34 2.965c-.54 0-1.079.138-1.56.416L22.12 9.34a3.13 3.13 0 0 0-1.56 2.702v11.916a3.13 3.13 0 0 0 1.56 2.703l10.32 5.959a3.11 3.11 0 0 0 1.56.418c.54 0 1.08-.14 1.56-.418l10.32-5.96a3.124 3.124 0 0 0 1.56-2.7V12.043a3.13 3.13 0 0 0-1.56-2.702L35.56 3.38A3.125 3.125 0 0 0 34 2.966Zm0 1.438c.29 0 .58.075.84.225l10.32 5.96c.518.3.84.857.84 1.454v11.916c0 .6-.322 1.157-.84 1.457l-10.32 5.96c-.518.3-1.162.3-1.68 0l-10.32-5.96c-.518-.3-.84-.857-.84-1.454V12.042c0-.597.322-1.157.84-1.454l10.32-5.96c.26-.15.55-.225.84-.225Zm0 2.07a.722.722 0 0 0-.72.721v21.617a.719.719 0 1 0 1.44 0V18.72h2.88a.719.719 0 1 0 0-1.44h-2.88V8.44l6.01 3.47c-.005.031-.01.06-.01.091v12a.719.719 0 1 0 1.44 0V12.736l1.32.763a.722.722 0 0 0 .72-1.248L34.36 6.57a.716.716 0 0 0-.36-.097Zm-4.08 3.608a.719.719 0 0 0-.72.72v10.976l-3.9-8.866a.721.721 0 0 0-1.38.29v9.6a.719.719 0 1 0 1.44 0v-6.175l3.9 8.866a.724.724 0 0 0 .809.415.722.722 0 0 0 .571-.706v-14.4a.719.719 0 0 0-.72-.72Z" fill="#FFFFFF"></path></g><defs><clipPath id="svg-1504539461_2395_a"><path fill="#fff" transform="translate(16)" d="M0 0h36v36H0z"></path></clipPath></defs></svg>